<?xml version="1.0" encoding="UTF-8"?>
<svg id="uuid-d7590b42-0086-4116-a0b1-b3c030c6c995" data-name="图层 1" xmlns="http://www.w3.org/2000/svg" viewBox="0 0 196.08 185.57">
  <path d="M45.56,32.2c4.7,0,8.6-1.5,11.6-4.5s4.5-6.8,4.5-11.6-1.5-8.6-4.5-11.6S50.36,0,45.56,0s-8.6,1.5-11.6,4.5-4.5,6.8-4.5,11.6,1.5,8.6,4.5,11.6,6.8,4.5,11.6,4.5Z" style="fill: #fff; stroke-width: 0px;"/>
  <path d="M168.3,32.15s7.14-5.8,17.64-5.51c.88.02,3.66.16,6.52.35,1.33.09,2.54.18,3.62.26-5.16-8.88-11.58-16.94-19.01-23.93-6.87.78-13.03,2.28-18.51,4.57-8.4,3.5-15,9-19.8,16.5-4.8,7.6-7.9,17.3-9.1,29.4l-1.16,11.3h-48.19l-6.01,21.5h51.99l-5.02,48.7c-.6,6.4-2.2,11.6-4.6,15.4-2.4,3.8-5.7,6.7-9.7,8.5-4,1.8-8.7,3.1-14.1,3.7l-6.06.65-5.21,19.47c6.64,1.49,13.52,2.37,20.57,2.54,7.41-1.24,13.93-3.19,19.5-5.97,3.76-1.88,6.2-3.77,6.72-4.16,9.38-6.96,13.68-15.57,16.13-20.62,1.94-4.01,4.4-10.12,5.74-18.05,2.46-16.72,4.92-33.45,7.38-50.17h25.62l5.75-21.5h-31.37c.68-5.51,1.37-11.02,2.05-16.54.27-2.28,1.55-10.67,8.62-16.41Z" style="fill: #fff; stroke-width: 0px;"/>
  <path d="M50.06,121.8c-.89-.23-3.22-.97-4.84-3.08-1.27-1.66-1.5-3.4-1.64-8.21-.17-5.98-.26-8.97,0-10.67.78-5.03,2.32-6.3,4.51-12.31.92-2.53,2.98-8.15,3.28-13.54.05-.92.55-13.07-7.92-21.7,0,0-7.97-8.7-28.5-8.7-3.04,0-6.14.15-9.2.37-2.87,7.86-4.83,16.17-5.76,24.78,3.92-.69,7.91-1.05,12.06-1.05s7,.9,8.7,2.7c1.7,1.8,2,4.5,1.1,8-.9,3.6-2,7.3-3.4,11.3-1.4,3.9-2.7,8-3.8,12.2-1.2,4.2-1.9,8.5-2.2,12.9-.6,10.1,2,17.8,7.7,23.1s14.5,7.9,26.4,7.9c4.09,0,7.79-.44,11.15-1.29l7.54-26.95c-2.61,1.4-4.97,2.44-7.09,3.04-3.78,1.06-5.68,1.82-8.1,1.2Z" style="fill: #fff; stroke-width: 0px;"/>
</svg>